<?xml version="1.0" encoding="UTF-8"?><svg xmlns="http://www.w3.org/2000/svg" xmlns:xlink="http://www.w3.org/1999/xlink" height="488.0" preserveAspectRatio="xMidYMid meet" version="1.0" viewBox="5.8 5.2 488.0 488.0" width="488.0" zoomAndPan="magnify"><g id="change1_1"><path d="M493.8,418.99c0,40.956-33.196,74.152-74.149,74.152H79.972c-40.953,0-74.153-33.196-74.153-74.152V79.313 c0-40.954,33.2-74.153,74.153-74.153H419.65c40.953,0,74.149,33.199,74.149,74.153V418.99z" fill="#1A4789"/></g><g id="change2_1"><path d="M329.156,287.067l7.893-61.185h-60.592v-39.065c0-17.716,4.943-29.788,30.34-29.788l32.375-0.018V102.29 c-5.59-0.746-24.807-2.413-47.203-2.413c-46.718,0-78.682,28.52-78.682,80.887v45.119h-52.837v61.185h52.837V444.06h63.17V287.067 H329.156z" fill="#FFF"/></g></svg>