<?xml version="1.0" encoding="UTF-8"?><svg xmlns="http://www.w3.org/2000/svg" xmlns:xlink="http://www.w3.org/1999/xlink" height="450.4" preserveAspectRatio="xMidYMid meet" version="1.0" viewBox="-0.7 -0.7 451.1 450.4" width="451.1" zoomAndPan="magnify"><g id="change1_1"><path d="M447.4425049,436.8347168c2.9287109,2.9296875,2.9287109,7.6777344,0,10.6074219 c-1.4648438,1.4638672-3.3847656,2.1962891-5.3037109,2.1962891s-3.8388672-0.7324219-5.3037109-2.1962891L224.819458,235.4260254 L12.8033447,447.4421387c-1.4643555,1.4638672-3.3837891,2.1962891-5.3032227,2.1962891s-3.8388672-0.7324219-5.3032227-2.1962891 c-2.9291992-2.9296875-2.9291992-7.6777344,0-10.6074219l212.015625-212.015625L2.1968994,12.8029785 c-2.9291992-2.9287109-2.9291992-7.6777344,0-10.6064453c2.9287109-2.9287109,7.6777344-2.9287109,10.6064453,0 l212.0161133,212.015625L436.835083,2.1965332c2.9296875-2.9287109,7.6777344-2.9287109,10.6074219,0 c2.9287109,2.9287109,2.9287109,7.6777344,0,10.6064453L235.4263916,224.8190918L447.4425049,436.8347168z" fill="inherit"/></g></svg>